<svg height="300px" width="300px" fill="#FFFFFF" xmlns="http://www.w3.org/2000/svg" xmlns:xlink="http://www.w3.org/1999/xlink" version="1.1" x="0px" y="0px" viewBox="0 0 100 100" enable-background="new 0 0 100 100" xml:space="preserve"><path fill="#FFFFFF" d="M25.94,82.062c0.011,0.03,0.025,0.057,0.042,0.084c0.016,0.028,0.031,0.055,0.053,0.078  c0.022,0.027,0.049,0.047,0.077,0.068c0.017,0.013,0.027,0.03,0.046,0.041l16.23,9.374c0.001,0.001,0.002,0,0.003,0.001  c0.007,0.004,0.016,0.003,0.023,0.007c0.067,0.035,0.142,0.06,0.224,0.06s0.156-0.024,0.224-0.06  c0.008-0.004,0.017-0.003,0.024-0.007c0-0.001,0.001,0,0.002-0.001l16.223-9.374l16.232-9.365c0.019-0.012,0.029-0.029,0.046-0.041  c0.028-0.021,0.055-0.042,0.077-0.068c0.021-0.024,0.037-0.051,0.053-0.078c0.017-0.027,0.031-0.055,0.042-0.085  c0.011-0.032,0.016-0.065,0.021-0.101c0.002-0.021,0.012-0.039,0.012-0.061v-18.74V35.059V16.318c0-0.011-0.006-0.02-0.006-0.03  c-0.002-0.021-0.004-0.042-0.009-0.063c-0.005-0.023-0.01-0.045-0.018-0.068c-0.008-0.022-0.016-0.042-0.026-0.062  c-0.004-0.009-0.004-0.019-0.009-0.027s-0.014-0.013-0.019-0.021c-0.013-0.019-0.025-0.036-0.041-0.053  c-0.016-0.018-0.031-0.034-0.049-0.049c-0.018-0.015-0.033-0.028-0.052-0.04c-0.009-0.006-0.014-0.015-0.022-0.02L59.111,6.519  c-0.019-0.011-0.039-0.012-0.059-0.02c-0.032-0.014-0.062-0.026-0.098-0.033c-0.032-0.006-0.063-0.007-0.096-0.006  c-0.031,0-0.061,0-0.092,0.006c-0.035,0.007-0.066,0.02-0.1,0.034c-0.019,0.008-0.039,0.009-0.057,0.019l-16.223,9.366  c-0.01,0.006-0.016,0.016-0.025,0.022c-0.016,0.011-0.03,0.022-0.046,0.036c-0.019,0.016-0.036,0.032-0.052,0.051  c-0.016,0.017-0.028,0.034-0.041,0.053c-0.005,0.008-0.014,0.013-0.019,0.021c-0.005,0.009-0.005,0.019-0.009,0.027  c-0.011,0.02-0.019,0.04-0.026,0.062c-0.008,0.022-0.013,0.044-0.018,0.067c-0.005,0.022-0.008,0.042-0.009,0.064  c0,0.01-0.006,0.019-0.006,0.03v18.741v18.447l-15.98,9.221c-0.01,0.006-0.015,0.016-0.023,0.021  c-0.018,0.012-0.033,0.023-0.05,0.038c-0.019,0.016-0.034,0.031-0.05,0.05c-0.016,0.018-0.028,0.034-0.041,0.053  c-0.005,0.008-0.014,0.013-0.019,0.021s-0.005,0.019-0.009,0.027c-0.011,0.02-0.019,0.04-0.026,0.062  c-0.008,0.022-0.013,0.044-0.018,0.067c-0.005,0.021-0.007,0.043-0.009,0.064c0,0.01-0.006,0.019-0.006,0.029V81.9  c0,0.021,0.01,0.041,0.012,0.061C25.925,81.996,25.93,82.029,25.94,82.062z M58.861,7.529l15.232,8.789l-15.232,8.797l-15.223-8.797  L58.861,7.529z M43.139,72.824l15.223-8.797v17.585l-15.223,8.796V72.824z M74.594,53.506l-15.232,8.789V44.713l15.232-8.789V53.506  z M74.594,34.77l-15.232,8.789V25.981l15.232-8.797V34.77z M59.361,63.449l15.232-8.788v17.585l-15.232,8.789V63.449z   M42.639,54.373l15.223,8.787l-15.223,8.797l-15.23-8.797L42.639,54.373z"/></svg>