<svg height="300px" width="300px" fill="#FFFFFF" xmlns="http://www.w3.org/2000/svg" xmlns:xlink="http://www.w3.org/1999/xlink" version="1.1" x="0px" y="0px" viewBox="0 0 100 100" enable-background="new 0 0 100 100" xml:space="preserve"><path fill="#FFFFFF" d="M25.503,77.734c0.011,0.03,0.025,0.057,0.042,0.084c0.016,0.028,0.031,0.055,0.053,0.078  c0.022,0.027,0.049,0.047,0.076,0.068c0.018,0.013,0.028,0.03,0.047,0.041l16.222,9.367c0.001,0.001,0.001,0,0.002,0.001  c0.008,0.005,0.017,0.004,0.024,0.008c0.068,0.034,0.142,0.059,0.224,0.059s0.155-0.024,0.224-0.059  c0.008-0.004,0.017-0.003,0.024-0.008c0.001-0.001,0.001,0,0.002-0.001l16.223-9.367l16.222-9.373  c0.019-0.011,0.029-0.028,0.046-0.041c0.028-0.021,0.055-0.041,0.077-0.068c0.021-0.023,0.037-0.05,0.053-0.077  c0.017-0.028,0.031-0.055,0.042-0.085c0.011-0.033,0.016-0.066,0.021-0.102c0.002-0.02,0.012-0.039,0.012-0.061V49.464  c0-0.011-0.006-0.02-0.006-0.03c-0.002-0.022-0.004-0.042-0.009-0.064c-0.005-0.023-0.011-0.045-0.018-0.067  c-0.008-0.021-0.016-0.042-0.026-0.062c-0.004-0.009-0.004-0.019-0.009-0.027s-0.014-0.013-0.019-0.021  c-0.013-0.019-0.025-0.036-0.041-0.053c-0.016-0.018-0.031-0.034-0.05-0.05c-0.017-0.015-0.032-0.027-0.051-0.039  c-0.009-0.006-0.014-0.015-0.022-0.02l-15.972-9.224v-18.45c0-0.011-0.005-0.02-0.006-0.03c-0.001-0.021-0.005-0.042-0.009-0.064  c-0.004-0.023-0.01-0.045-0.018-0.067c-0.008-0.022-0.016-0.042-0.025-0.062c-0.005-0.009-0.005-0.019-0.01-0.027  c-0.005-0.008-0.014-0.013-0.019-0.021c-0.013-0.019-0.025-0.036-0.04-0.053c-0.017-0.018-0.033-0.034-0.051-0.05  c-0.017-0.014-0.032-0.027-0.051-0.039c-0.008-0.005-0.014-0.015-0.022-0.02l-16.223-9.365c-0.019-0.011-0.04-0.012-0.06-0.02  c-0.032-0.013-0.062-0.026-0.097-0.032c-0.031-0.006-0.062-0.006-0.093-0.006c-0.032,0-0.063,0-0.097,0.007  c-0.032,0.006-0.062,0.018-0.092,0.031c-0.021,0.008-0.043,0.01-0.062,0.021l-16.222,9.365c-0.01,0.006-0.016,0.016-0.025,0.022  c-0.016,0.011-0.03,0.022-0.046,0.036c-0.019,0.016-0.036,0.032-0.052,0.051c-0.016,0.017-0.028,0.034-0.041,0.053  c-0.005,0.008-0.014,0.013-0.019,0.021c-0.005,0.009-0.005,0.019-0.009,0.027c-0.011,0.02-0.019,0.04-0.026,0.062  c-0.007,0.022-0.013,0.044-0.018,0.067c-0.005,0.022-0.007,0.042-0.009,0.064c0,0.01-0.006,0.019-0.006,0.03v18.739v18.74v18.736  c0,0.021,0.01,0.041,0.012,0.061C25.487,77.668,25.492,77.701,25.503,77.734z M42.692,68.488l14.758-8.518  c0.069,0.058,0.136,0.119,0.215,0.164c0.079,0.047,0.165,0.073,0.25,0.104v15.891l-0.25,0.145L42.692,84.92V68.488z M58.915,60.238  c0.085-0.03,0.171-0.058,0.251-0.104l13.971-8.072v15.271l-14.222,8.218V60.238z M42.692,67.334V49.752l14.223-8.213v17.296  c0,0.092,0.02,0.18,0.036,0.268L42.692,67.334z M42.692,48.598V31.019l14.223-8.217v17.583L42.692,48.598z M42.192,30.152  l-14.222-8.218l14.222-8.21l14.224,8.21L42.192,30.152z M58.915,57.97V40.962l14.722,8.502L58.915,57.97z"/></svg>