<svg height="300px" width="300px" fill="#FFFFFF" xmlns="http://www.w3.org/2000/svg" xmlns:xlink="http://www.w3.org/1999/xlink" version="1.1" x="0px" y="0px" viewBox="0 0 100 100" enable-background="new 0 0 100 100" xml:space="preserve"><path fill="#FFFFFF" d="M25.355,73.393c0.011,0.031,0.025,0.058,0.041,0.085c0.017,0.027,0.032,0.054,0.053,0.078  c0.023,0.026,0.05,0.047,0.078,0.068c0.017,0.013,0.027,0.03,0.046,0.04l16.222,9.367c0,0.001,0.001,0,0.002,0.001  c0.008,0.005,0.017,0.003,0.024,0.007c0.067,0.035,0.142,0.06,0.224,0.06s0.156-0.024,0.224-0.059  c0.008-0.004,0.017-0.003,0.024-0.008c0-0.001,0.001,0,0.002-0.001l16.239-9.367l16.223-9.362c0.019-0.011,0.029-0.028,0.046-0.041  c0.028-0.021,0.055-0.042,0.078-0.067c0.021-0.025,0.036-0.051,0.053-0.078c0.016-0.028,0.03-0.055,0.041-0.086  c0.011-0.032,0.016-0.065,0.02-0.1c0.003-0.021,0.013-0.039,0.013-0.061v-18.74v-18.74c0-0.011-0.005-0.02-0.006-0.03  c-0.001-0.021-0.005-0.042-0.009-0.063c-0.004-0.023-0.01-0.045-0.018-0.068c-0.008-0.021-0.016-0.042-0.025-0.062  c-0.005-0.009-0.005-0.019-0.01-0.027s-0.014-0.013-0.02-0.021c-0.012-0.019-0.024-0.036-0.039-0.053  c-0.016-0.018-0.031-0.034-0.05-0.049c-0.017-0.015-0.034-0.028-0.053-0.041c-0.008-0.005-0.013-0.014-0.021-0.019l-16.223-9.373  c-0.019-0.011-0.04-0.012-0.06-0.02c-0.031-0.014-0.062-0.026-0.098-0.033c-0.029-0.005-0.059-0.006-0.089-0.006  c-0.034,0-0.066,0-0.101,0.007c-0.031,0.006-0.061,0.018-0.09,0.03c-0.021,0.009-0.043,0.01-0.063,0.021l-16.239,9.373  l-16.222,9.365c-0.011,0.006-0.016,0.016-0.025,0.022c-0.016,0.01-0.03,0.022-0.045,0.035c-0.019,0.016-0.036,0.033-0.054,0.052  c-0.015,0.017-0.027,0.034-0.04,0.053c-0.005,0.008-0.014,0.013-0.019,0.021c-0.005,0.009-0.005,0.019-0.01,0.027  c-0.01,0.02-0.018,0.04-0.025,0.062c-0.008,0.022-0.014,0.044-0.018,0.067c-0.004,0.021-0.008,0.042-0.009,0.064  c-0.001,0.01-0.006,0.019-0.006,0.03v18.74v18.737c0,0.021,0.01,0.04,0.013,0.061C25.34,73.326,25.345,73.359,25.355,73.393z   M43.046,27.543l14.237,8.21l-15.238,8.797l-14.223-8.219l14.973-8.644L43.046,27.543z M73.007,45.417l-14.223,8.211V36.043  l14.223-8.21v17.296V45.417z M57.784,54.206l-15.239,8.796V45.417l15.239-8.797V54.206z M42.545,64.157l15.239-8.796v16.428  l-0.249,0.143l-14.99,8.646V64.157z M58.784,54.783l14.223-8.211v16.43l-14.223,8.209V54.783z M58.284,35.177l-14.237-8.211  l14.236-8.218l14.224,8.218L58.284,35.177z"/></svg>