<svg height="300px" width="300px" fill="#FFFFFF" xmlns="http://www.w3.org/2000/svg" xmlns:xlink="http://www.w3.org/1999/xlink" version="1.1" x="0px" y="0px" viewBox="0 0 100 100" enable-background="new 0 0 100 100" xml:space="preserve"><path fill="#FFFFFF" d="M25.366,63.979c0.011,0.031,0.025,0.058,0.042,0.086c0.016,0.027,0.031,0.053,0.053,0.078  c0.022,0.025,0.049,0.047,0.076,0.067c0.018,0.013,0.028,0.03,0.047,0.041l16.003,9.239l0.236,0.136l0.004,0.002l0,0l16.218,9.364  c0.001,0,0.002,0,0.002,0c0.008,0.004,0.017,0.004,0.024,0.008c0.067,0.034,0.142,0.059,0.224,0.059s0.156-0.024,0.224-0.059  c0.008-0.004,0.017-0.004,0.024-0.008c0,0,0.001,0,0.002,0l16.222-9.366c0.019-0.011,0.029-0.028,0.046-0.041  c0.028-0.021,0.055-0.042,0.078-0.067c0.021-0.025,0.036-0.051,0.053-0.078c0.016-0.028,0.03-0.055,0.041-0.086  c0.011-0.032,0.016-0.065,0.02-0.1c0.003-0.021,0.013-0.039,0.013-0.061V54.455v-18.74c0-0.011-0.005-0.02-0.006-0.03  c-0.001-0.021-0.005-0.042-0.009-0.064c-0.004-0.023-0.01-0.045-0.018-0.067c-0.008-0.022-0.016-0.042-0.025-0.062  c-0.005-0.009-0.005-0.019-0.01-0.027c-0.005-0.008-0.014-0.013-0.019-0.021c-0.013-0.019-0.025-0.036-0.04-0.053  c-0.017-0.019-0.033-0.035-0.052-0.051c-0.017-0.014-0.032-0.026-0.049-0.038c-0.009-0.006-0.015-0.015-0.023-0.021l-16.222-9.366  l-16.222-9.374c-0.019-0.01-0.038-0.011-0.057-0.019c-0.033-0.014-0.065-0.027-0.101-0.033c-0.03-0.006-0.059-0.006-0.09-0.006  c-0.033,0-0.064,0-0.098,0.007c-0.033,0.006-0.062,0.018-0.094,0.031c-0.02,0.009-0.042,0.01-0.062,0.021l-16.239,9.374  c-0.008,0.005-0.013,0.013-0.021,0.019c-0.02,0.013-0.037,0.027-0.055,0.042c-0.018,0.015-0.032,0.031-0.047,0.048  c-0.015,0.017-0.027,0.032-0.039,0.05c-0.006,0.009-0.016,0.014-0.021,0.024c-0.006,0.009-0.006,0.02-0.01,0.03  c-0.01,0.019-0.018,0.039-0.024,0.059c-0.007,0.022-0.013,0.043-0.018,0.066c-0.005,0.022-0.008,0.044-0.009,0.067  c-0.001,0.01-0.006,0.018-0.006,0.028v18.738v18.73c0,0.021,0.01,0.039,0.012,0.061C25.351,63.913,25.355,63.946,25.366,63.979z   M73.017,54.743l-13.757,7.94c-0.068-0.059-0.135-0.119-0.215-0.165s-0.165-0.073-0.25-0.103V46.49  c0.085-0.03,0.171-0.058,0.25-0.104l13.972-8.072V54.743z M59.76,63.55l13.257-7.651v16.428l-13.222,7.635V63.818  C59.795,63.727,59.775,63.639,59.76,63.55z M57.33,46.222c0.068,0.059,0.135,0.119,0.215,0.165s0.165,0.073,0.25,0.103v15.926  c-0.085,0.029-0.171,0.057-0.25,0.104l-14.972,8.651V54.743L57.33,46.222z M42.573,53.588V36.004l14.222-8.211v17.295  c0,0.092,0.02,0.18,0.035,0.268L42.573,53.588z M42.073,35.138l-14.238-8.211l14.237-8.219l14.223,8.219L42.073,35.138z   M58.795,44.222V27.216l14.722,8.5L58.795,44.222z"/></svg>