<svg height="300px" width="300px" fill="#FFFFFF" xmlns="http://www.w3.org/2000/svg" xmlns:xlink="http://www.w3.org/1999/xlink" version="1.1" x="0px" y="0px" viewBox="0 0 100 100" enable-background="new 0 0 100 100" xml:space="preserve"><path fill="#FFFFFF" d="M17.21,72.641c0.011,0.031,0.025,0.058,0.042,0.086c0.016,0.027,0.031,0.053,0.053,0.078  c0.022,0.025,0.049,0.047,0.076,0.067c0.018,0.013,0.028,0.03,0.047,0.041l16.238,9.372c0.001,0,0.002,0,0.002,0  c0.008,0.004,0.017,0.004,0.024,0.008c0.067,0.034,0.142,0.059,0.224,0.059s0.156-0.024,0.225-0.059  c0.007-0.004,0.016-0.004,0.023-0.008c0,0,0.001,0,0.002,0l16.229-9.372l16.222-9.367l16.222-9.372  c0.019-0.012,0.029-0.028,0.046-0.041c0.028-0.021,0.055-0.042,0.078-0.068c0.021-0.024,0.036-0.051,0.052-0.078  c0.017-0.027,0.031-0.055,0.042-0.085c0.012-0.032,0.016-0.065,0.02-0.101c0.003-0.021,0.013-0.039,0.013-0.061V35.008  c0-0.011-0.005-0.02-0.006-0.03c-0.001-0.021-0.005-0.042-0.009-0.063c-0.004-0.023-0.01-0.045-0.018-0.068  c-0.008-0.021-0.016-0.042-0.025-0.062c-0.005-0.009-0.005-0.019-0.01-0.027s-0.014-0.013-0.02-0.021  c-0.012-0.019-0.024-0.036-0.039-0.053c-0.016-0.018-0.032-0.034-0.05-0.049c-0.017-0.015-0.034-0.028-0.052-0.04  c-0.009-0.006-0.014-0.015-0.022-0.02l-16.222-9.375l-16.222-9.363c-0.019-0.011-0.04-0.012-0.06-0.02  c-0.032-0.013-0.062-0.025-0.097-0.032c-0.03-0.006-0.06-0.006-0.091-0.006c-0.033,0-0.065,0-0.1,0.007  c-0.031,0.006-0.061,0.018-0.09,0.031c-0.021,0.008-0.043,0.009-0.063,0.021l-16.229,9.363c-0.01,0.005-0.014,0.014-0.023,0.02  c-0.018,0.012-0.033,0.025-0.05,0.039c-0.019,0.016-0.034,0.032-0.05,0.05c-0.016,0.017-0.028,0.034-0.041,0.053  c-0.005,0.008-0.014,0.013-0.019,0.021s-0.005,0.019-0.009,0.027c-0.011,0.02-0.019,0.04-0.026,0.062  c-0.007,0.022-0.013,0.044-0.018,0.068c-0.005,0.021-0.007,0.042-0.009,0.063c0,0.01-0.006,0.019-0.006,0.03v18.452l-15.988,9.221  c-0.01,0.006-0.015,0.016-0.023,0.021c-0.018,0.012-0.033,0.023-0.049,0.037c-0.02,0.017-0.035,0.032-0.051,0.051  c-0.016,0.018-0.028,0.034-0.041,0.053c-0.005,0.008-0.014,0.013-0.019,0.021s-0.005,0.019-0.009,0.027  c-0.011,0.02-0.019,0.039-0.025,0.061c-0.009,0.023-0.015,0.045-0.02,0.069c-0.004,0.021-0.006,0.042-0.008,0.063  c0,0.01-0.006,0.019-0.006,0.029v18.74c0,0.021,0.01,0.039,0.012,0.061C17.194,72.575,17.199,72.608,17.21,72.641z M34.416,63.401  l15.229-8.795v16.431l-0.25,0.145l-14.979,8.649V63.401z M50.646,54.029l14.757-8.521c0.069,0.058,0.136,0.119,0.215,0.165  c0.08,0.046,0.165,0.073,0.25,0.104v15.89l-15.222,8.792V54.029z M66.867,45.777c0.085-0.03,0.17-0.058,0.25-0.104l13.972-8.067  v15.269L66.867,61.09V45.777z M50.646,52.874V35.297l14.222-8.219v17.296c0,0.092,0.02,0.18,0.035,0.268L50.646,52.874z   M50.146,34.431l-14.229-8.219l14.229-8.209l14.222,8.209L50.146,34.431z M34.881,45.509l14.265,8.231l-15.229,8.795l-14.237-8.218  l14.987-8.644C34.746,45.628,34.812,45.567,34.881,45.509z M66.867,43.508V26.5l14.722,8.508L66.867,43.508z"/></svg>