<svg height="300px" width="300px" fill="#FFFFFF" xmlns="http://www.w3.org/2000/svg" xmlns:xlink="http://www.w3.org/1999/xlink" version="1.1" x="0px" y="0px" viewBox="0 0 100 100" enable-background="new 0 0 100 100" xml:space="preserve"><path fill="#FFFFFF" d="M25.049,84.119l16.222,9.366c0.231,0.134,0.491,0.201,0.75,0.201s0.519-0.067,0.75-0.201l16.222-9.366  c0.464-0.268,0.75-0.763,0.75-1.299V64.948l15.489-8.94c0.464-0.268,0.75-0.763,0.75-1.299v-18.74V17.237  c0-0.536-0.286-1.031-0.75-1.299l-16.239-9.37c-0.232-0.134-0.491-0.201-0.75-0.201s-0.518,0.067-0.75,0.201l-16.222,9.37  c-0.464,0.268-0.75,0.763-0.75,1.299v17.866l-15.472,8.942c-0.465,0.268-0.75,0.763-0.75,1.299v18.738V82.82  C24.299,83.356,24.585,83.852,25.049,84.119z M58.242,8.445l15.238,8.792l-15.238,8.789l-15.222-8.789L58.242,8.445z M73.981,54.42  l-15.239,8.796V45.633l15.239-8.797V54.42z M57.742,82.531L42.521,91.32V73.735l15.222-8.787V82.531z M42.521,72.58V54.998  l15.222-8.788v17.583L42.521,72.58z M73.981,35.681l-15.239,8.797V26.893l15.239-8.79V35.681z M42.021,36.547l15.222,8.797  l-15.222,8.787l-15.222-8.787L42.021,36.547z"/></svg>